<?xml version="1.0" encoding="UTF-8" standalone="no"?>
<svg
   xmlns:dc="http://purl.org/dc/elements/1.1/"
   xmlns:cc="http://creativecommons.org/ns#"
   xmlns:rdf="http://www.w3.org/1999/02/22-rdf-syntax-ns#"
   xmlns:svg="http://www.w3.org/2000/svg"
   xmlns="http://www.w3.org/2000/svg"
   xmlns:sodipodi="http://sodipodi.sourceforge.net/DTD/sodipodi-0.dtd"
   xmlns:inkscape="http://www.inkscape.org/namespaces/inkscape"
   height="72.060867"
   viewBox="0 0 281.06168 144.12173"
   width="140.53084"
   version="1.1"
   id="svg4"
   sodipodi:docname="instagram pack.svg"
   inkscape:version="0.92.4 (5da689c313, 2019-01-14)"
   style="fill:#262626">
  <metadata
     id="metadata10">
    <rdf:RDF>
      <cc:Work
         rdf:about="">
        <dc:format>image/svg+xml</dc:format>
        <dc:type
           rdf:resource="http://purl.org/dc/dcmitype/StillImage" />
        <dc:title></dc:title>
      </cc:Work>
    </rdf:RDF>
  </metadata>
  <defs
     id="defs8" />
  <sodipodi:namedview
     pagecolor="#ffffff"
     bordercolor="#666666"
     borderopacity="1"
     objecttolerance="10"
     gridtolerance="10"
     guidetolerance="10"
     inkscape:pageopacity="0"
     inkscape:pageshadow="2"
     inkscape:window-width="2400"
     inkscape:window-height="1284"
     id="namedview6"
     showgrid="false"
     inkscape:zoom="3.4766083"
     inkscape:cx="73.237356"
     inkscape:cy="82.04433"
     inkscape:window-x="2391"
     inkscape:window-y="-9"
     inkscape:window-maximized="1"
     inkscape:current-layer="svg4"
     showguides="true"
     inkscape:guide-bbox="true">
    <sodipodi:guide
       position="314.09416,109.48202"
       orientation="1,0"
       id="guide948"
       inkscape:locked="false" />
    <sodipodi:guide
       position="-133.46341,5.1774598"
       orientation="1,0"
       id="guide950"
       inkscape:locked="false" />
    <sodipodi:guide
       position="313.244,107.7762"
       orientation="0,1"
       id="guide952"
       inkscape:locked="false" />
    <sodipodi:guide
       position="322.44916,114.50847"
       orientation="0,1"
       id="guide954"
       inkscape:locked="false" />
    <sodipodi:guide
       position="322.50001,117"
       orientation="0,1"
       id="guide956"
       inkscape:locked="false" />
    <sodipodi:guide
       position="-1486.2186,-2662.221"
       orientation="0,1"
       id="guide1048"
       inkscape:locked="false" />
    <sodipodi:guide
       position="-1484.7804,-2662.2209"
       orientation="1,0"
       id="guide1050"
       inkscape:locked="false" />
    <sodipodi:guide
       position="-2332.158,407.86877"
       orientation="1,0"
       id="guide1133"
       inkscape:locked="false" />
    <sodipodi:guide
       position="-2317.4886,406.14295"
       orientation="0,1"
       id="guide1135"
       inkscape:locked="false" />
    <sodipodi:guide
       position="-2258.8474,468.81356"
       orientation="0,1"
       id="guide1139"
       inkscape:locked="false" />
    <sodipodi:guide
       position="-2279.1609,432.06621"
       orientation="1,0"
       id="guide1141"
       inkscape:locked="false" />
  </sodipodi:namedview>
  <path
     d="m 106.79099,36.176014 -2.3814,-9.355515 c 1.5309,-2.806654 2.3814,-6.038559 2.3814,-9.440565 0,-11.0565164 -8.93026,-19.9867814 -19.98678,-19.9867814 -11.056518,0 -19.986782,8.930265 -19.986782,19.9867814 0,11.056518 8.930264,19.986782 19.986782,19.986782 3.402,0 6.63391,-0.850501 9.44056,-2.381404 l 9.35552,2.381404 c 0.6804,0.1701 1.3608,-0.510301 1.1907,-1.190702 z m -2.5515,-18.79608 c 0,3.402006 -0.8505,5.95351 -2.21131,8.505014 -0.1701,0.3402 -0.25515,0.765451 -0.1701,1.190702 l 1.78606,7.144211 -7.05917,-1.786053 c -0.42525,-0.08505 -0.8505,-0.08505 -1.1907,0.1701 -1.5309,0.850502 -4.4226,2.211304 -8.50501,2.211304 -9.695716,0 -17.520328,-7.824613 -17.520328,-17.435278 0,-9.6106654 7.824612,-17.43527738 17.435278,-17.43527738 9.61066,0 17.43528,7.82461198 17.43528,17.43527738 z"
     id="path2"
     inkscape:connector-curvature="0"
     style="clip-rule:evenodd;fill-rule:evenodd;stroke-width:0.85050136" />
  <g
     style="fill:#262626"
     id="g828"
     transform="matrix(0.91666667,0,0,0.91666667,133.35252,50.015033)">
    <path
       id="path817"
       d="M 47.8,3.8 C 47.5,3.3 47,3 46.5,3 H 1.5 C 0.9,3.1 0.3,3.5 0.1,4 -0.1,4.5 0,5.2 0.4,5.7 l 13.2,13 c 0.5,0.4 1.1,0.6 1.7,0.3 l 16.6,-8 c 0.7,-0.3 1.6,-0.1 2,0.5 0.4,0.7 0.2,1.6 -0.5,2 l -15.6,9.9 c -0.5,0.3 -0.8,1 -0.7,1.6 l 4.6,19 c 0.1,0.6 0.6,1 1.2,1.1 h 0.2 c 0.5,0 1,-0.3 1.3,-0.7 l 23.2,-39 c 0.5,-0.5 0.5,-1.1 0.2,-1.6 z"
       inkscape:connector-curvature="0" />
  </g>
  <g
     style="fill:#262626;fill-opacity:1"
     id="g841"
     transform="matrix(0.83256244,0,0,0.83256244,203.91059,-2.6068474)">
    <path
       id="path830"
       d="m 43.5,48 c -0.4,0 -0.8,-0.2 -1.1,-0.4 L 24,29 5.6,47.6 C 5.2,48 4.5,48.2 4,47.9 3.4,47.7 3,47.1 3,46.5 V 1.5 C 3,0.7 3.7,0 4.5,0 h 39 C 44.3,0 45,0.7 45,1.5 v 45 c 0,0.6 -0.4,1.2 -0.9,1.4 C 43.9,48 43.7,48 43.5,48 Z M 24,26 c 0.8,0 1.6,0.3 2.2,0.9 L 42,42.9 V 3 H 6 v 39.9 l 15.8,-16 C 22.4,26.3 23.2,26 24,26 Z"
       inkscape:connector-curvature="0"
       style="fill:#262626;fill-opacity:1" />
  </g>
  <g
     style="fill:#262626"
     id="g854"
     transform="matrix(0.95238095,0,0,0.95238095,132.49103,-5.4639904)">
    <path
       id="path843"
       d="M 47.8,3.8 C 47.5,3.3 47,3 46.5,3 H 1.5 C 0.9,3.1 0.3,3.5 0.1,4 -0.1,4.5 0,5.2 0.4,5.7 l 15.9,15.6 5.5,22.6 c 0.1,0.6 0.6,1 1.2,1.1 h 0.2 c 0.5,0 1,-0.3 1.3,-0.7 l 23.2,-39 c 0.4,-0.4 0.4,-1 0.1,-1.5 z M 5.2,6.1 H 40.7 L 18,18.7 Z M 23.9,39.7 19.5,21.3 42.4,8.6 Z"
       inkscape:connector-curvature="0" />
  </g>
  <path
     style="fill:#262626;fill-opacity:1;stroke-width:0.85100752"
     inkscape:connector-curvature="0"
     d="m 240.56,117.38778 c -1.87222,-1.78712 -4.08484,-2.97853 -8.85048,-2.97853 h -2.80832 l 2.72322,-2.97853 c 0.5106,-0.5106 0.4255,-1.36161 -0.0851,-1.78711 -0.51061,-0.51061 -1.36161,-0.42551 -1.78712,0.0851 l -3.65933,3.91463 -3.65933,-3.91463 c -0.51061,-0.51061 -1.27651,-0.51061 -1.78712,-0.0851 -0.5106,0.5106 -0.5957,1.27651 -0.0851,1.78711 l 2.72323,2.97853 h -2.80833 c -4.76564,0 -6.97826,1.19141 -8.85048,2.97853 -1.78711,1.87221 -2.97852,4.08483 -2.97852,8.85047 v 11.1482 c 0,4.85074 1.19141,7.06336 2.97852,8.93558 1.87222,1.78712 4.08484,2.97853 8.85048,2.97853 h 11.1482 c 4.85074,0 7.06336,-1.19141 8.93558,-2.97853 1.78711,-1.87222 2.97852,-4.08484 2.97852,-8.85048 v -11.1482 c 0,-4.85074 -1.19141,-7.06336 -2.97852,-8.93557 z m 0.4255,20.08377 c 0,4.42524 -1.10631,5.95705 -2.21262,7.06336 -1.19141,1.10631 -2.72322,2.21262 -7.14846,2.21262 h -11.1482 c -4.42524,0 -5.95705,-1.10631 -7.06336,-2.21262 -1.10631,-1.19141 -2.21262,-2.72322 -2.21262,-7.14846 v -11.0631 c 0,-4.42524 1.10631,-5.95705 2.21262,-7.06336 1.19141,-1.10631 2.72322,-2.21262 7.14846,-2.21262 h 11.1482 c 4.42524,0 5.95705,1.10631 7.06336,2.21262 1.10631,1.19141 2.21262,2.72323 2.21262,7.14846 z m -5.87195,-7.31866 -7.74417,2.38282 v -3.14873 c 0,-0.4255 -0.1702,-0.76591 -0.5106,-1.02121 -0.34041,-0.2553 -0.76591,-0.3404 -1.10631,-0.1702 l -9.44619,2.89343 c -0.6808,0.1702 -1.02121,0.9361 -0.851,1.61691 0.1702,0.68081 0.9361,1.02121 1.61691,0.85101 l 7.74417,-2.38282 v 3.14872 c 0,0.42551 0.1702,0.76591 0.5106,1.02121 0.25531,0.17021 0.51061,0.25531 0.76591,0.25531 0.0851,0 0.2553,0 0.3404,-0.0851 l 9.44619,-2.89343 c 0.6808,-0.1702 1.02121,-0.93611 0.851,-1.61691 -0.1702,-0.68081 -0.9361,-1.02121 -1.61691,-0.85101 z"
     id="path856" />
  <path
     style="fill:#262626;fill-opacity:1;stroke-width:0.85100752"
     d="m 298.42272,109.30185 c -0.32977,0.0213 -0.65053,0.17048 -0.86328,0.42578 l -3.66016,3.91406 -3.65625,-3.91406 c -0.51061,-0.5106 -1.27845,-0.51144 -1.78906,-0.0859 -0.5106,0.5106 -0.59654,1.27847 -0.0859,1.78907 l 2.72656,2.97656 h -2.80859 c -4.76564,0 -6.97934,1.19335 -8.85156,2.98047 -1.78711,1.87221 -2.98047,4.08591 -2.98047,8.85156 v 11.14844 c 0,4.85075 1.19336,7.06138 2.98047,8.93359 1.87222,1.78712 4.08592,2.98047 8.85156,2.98047 h 11.14844 c 4.85074,0 7.06137,-1.19335 8.93359,-2.98047 1.78711,-1.87221 2.98047,-4.08591 2.98047,-8.85156 v -11.14844 c 0,-4.85075 -1.19336,-7.06138 -2.98047,-8.93359 -1.87222,-1.78712 -4.08592,-2.98047 -8.85156,-2.98047 h -2.8086 l 2.72657,-2.97656 c 0.5106,-0.5106 0.42466,-1.36357 -0.0859,-1.78907 -0.25531,-0.2553 -0.59602,-0.36112 -0.92578,-0.33984 z m -4.3086,18.82031 c 0.19148,0.0319 0.38449,0.11454 0.55469,0.24219 0.3404,0.25531 0.50781,0.59794 0.50781,1.02344 v 3.14844 l 7.7461,-2.38282 c 0.68081,-0.1702 1.44698,0.17076 1.61718,0.85157 0.17021,0.6808 -0.17076,1.44698 -0.85156,1.61718 l -9.44531,2.89063 c -0.0851,0.0851 -0.25865,0.0859 -0.34375,0.0859 -0.2553,0 -0.51032,-0.0837 -0.76563,-0.25391 -0.3404,-0.25531 -0.50781,-0.59794 -0.50781,-1.02344 v -3.14844 l -7.74609,2.38282 c -0.68081,0.1702 -1.44699,-0.17076 -1.61719,-0.85157 -0.17021,-0.6808 0.17076,-1.44698 0.85156,-1.61718 l 9.44532,-2.89063 c 0.1702,-0.0851 0.36321,-0.10613 0.55468,-0.0742 z"
     id="path1014"
     inkscape:connector-curvature="0" />
  <g
     style="fill:#262626;fill-opacity:1"
     id="g893"
     transform="matrix(0.8501594,0,0,0.8501594,135.43995,94.680701)">
    <path
       id="path882"
       d="m 44.370847,22.24661 h -11.1 c -0.5,0 -1,-0.2 -1.4,-0.6 l -4,-4 c -0.6,-0.6 -1.5,-0.6 -2.1,0 l -4,4 c -0.4,0.4 -0.9,0.6 -1.4,0.6 H 9.3708475 c -3.3,0 -6,2.7 -6,6 v 30 c 0,3.3 2.7,6 6,6 H 44.370847 c 3.3,0 6,-2.7 6,-6 v -30 c 0,-3.3 -2.7,-6 -6,-6 z m -29.4,39 c -0.6,0 -1.1,-0.6 -1,-1.2 0.7,-3.2 3.5,-5.6 6.8,-5.6 h 12 c 3.4,0 6.2,2.4 6.8,5.6 0.1,0.6 -0.4,1.2 -1,1.2 z m 32.4,-3 c 0,1.7 -1.3,3 -3,3 h -0.6 c -0.5,0 -0.9,-0.4 -1,-0.9 -0.6,-5 -4.8,-8.9 -9.9,-8.9 h -12 c -5.1,0 -9.4,3.9 -9.9,8.9 -0.1,0.5 -0.5,0.9 -0.9999995,0.9 h -0.6 c -1.7,0 -3,-1.3 -3,-3 v -30 c 0,-1.7 1.3,-3 3,-3 H 20.470847 c 1.3,0 2.6,-0.5 3.5,-1.5 l 2.9,-2.9 2.9,2.9 c 0.9,0.9 2.2,1.5 3.5,1.5 h 11.1 c 1.7,0 3,1.3 3,3 z m -20.5,-29 c -5.3,0 -9.6,4.3 -9.6,9.6 0,5.3 4.3,9.6 9.6,9.6 5.3,0 9.6,-4.3 9.6,-9.6 0,-5.3 -4.3,-9.6 -9.6,-9.6 z m 0,16.1 c -3.6,0 -6.6,-2.9 -6.6,-6.6 0,-3.6 2.9,-6.6 6.6,-6.6 3.7,0 6.6,2.9 6.6,6.6 0,3.6 -3,6.6 -6.6,6.6 z"
       inkscape:connector-curvature="0"
       style="fill:#262626;fill-opacity:1" />
  </g>
  <g
     style="fill:#262626"
     id="g906"
     transform="matrix(0.83333327,0,0,0.83333327,352.80369,87.478645)">
    <path
       id="path895"
       d="m 10.687194,26.186301 c -13.1999995,0 -24,10.8 -24,24.000002 0,13.2 10.8000005,24.000001 24,24.000001 13.2,0 24,-10.800001 24,-24.000001 0,-13.200002 -10.8,-24.000002 -24,-24.000002 z m 0,45.000002 c -11.5999995,0 -21,-9.4 -21,-21 0,-11.600002 9.4000005,-21.000002 21,-21.000002 11.6,0 21,9.4 21,21.000002 0,11.6 -9.4,21 -21,21 z m 10.2,-33.200002 -14.7999995,7.000002 c -0.3,0.1 -0.6,0.4 -0.7,0.7 l -7,14.8 c -0.3,0.6 -0.2,1.3 0.3,1.7 0.3,0.3 0.7,0.4 1.1,0.4 0.2,0 0.4,0 0.6,-0.1 l 14.7999995,-7 c 0.3,-0.1 0.6,-0.4 0.7,-0.7 l 7,-14.800002 c 0.3,-0.6 0.2,-1.3 -0.3,-1.7 -0.4,-0.5 -1.1,-0.6 -1.7,-0.3 z m -7.4,15.000002 -5.4999995,-5.5 10.4999995,-5 z"
       inkscape:connector-curvature="0"
       style="clip-rule:evenodd;fill-rule:evenodd" />
  </g>
  <g
     style="fill:#262626"
     id="g919"
     transform="matrix(0.88888889,0,0,0.88888889,69.142709,107.96722)">
    <path
       id="path908"
       d="M 45,1.5 H 3 C 2.2,1.5 1.5,2.2 1.5,3 v 42 c 0,0.8 0.7,1.5 1.5,1.5 h 42 c 0.8,0 1.5,-0.7 1.5,-1.5 V 3 C 46.5,2.2 45.8,1.5 45,1.5 Z m -40.5,3 h 11 v 11 h -11 z m 0,14 h 11 v 11 h -11 z m 11,25 h -11 v -11 h 11 z m 14,0 h -11 v -11 h 11 z m 0,-14 h -11 v -11 h 11 z m 0,-14 h -11 v -11 h 11 z m 14,28 h -11 v -11 h 11 z m 0,-14 h -11 v -11 h 11 z m 0,-14 h -11 v -11 h 11 z"
       inkscape:connector-curvature="0"
       style="clip-rule:evenodd;fill-rule:evenodd" />
  </g>
  <g
     style="fill:#262626"
     id="g932"
     transform="matrix(0.95923261,0,0,0.95923261,210.04642,13.05086)">
    <path
       id="path921"
       d="m -189.31639,-13.32316 c 5.7,0 10.4,5.1999996 10.4,11.4999996 0,6.8 -5.9,11 -11.5,16.0000004 -5.6,5 -8.5,7.7 -9.5,8.3 -1.1,-0.7 -4.7,-4 -9.5,-8.3 -5.7,-5.0000004 -11.5,-9.2000004 -11.5,-16.0000004 0,-6.3 4.7,-11.4999996 10.4,-11.4999996 4.2,0 6.5,2 8.1,4.2999996 1.9,2.6 2.2,3.9 2.5,3.9 0.3,0 0.6,-1.3 2.5,-3.9 1.6,-2.2999996 3.9,-4.2999996 8.1,-4.2999996 m 0,-3 c -4.5,0 -7.9,1.8 -10.6,5.6 -2.7,-3.7 -6.1,-5.5 -10.6,-5.5 -7.4,-0.1 -13.4,6.3999996 -13.4,14.3999996 0,7.3 5.4,12.0000004 10.6,16.5000004 0.6,0.5 1.3,1.1 1.9,1.7 l 2.3,2 c 4.4,3.9 6.6,5.9 7.6,6.5 0.5,0.3 1.1,0.5 1.6,0.5 0.6,0 1.1,-0.2 1.6,-0.5 1,-0.6 2.8,-2.2 7.8,-6.8 l 2,-1.8 c 0.7,-0.6 1.3,-1.2 2,-1.7 5.3,-4.4 10.6,-9.0000004 10.6,-16.4000004 0,-8 -6,-14.4999996 -13.4,-14.4999996 z"
       inkscape:connector-curvature="0" />
  </g>
  <path
     style="clip-rule:evenodd;fill-rule:evenodd;stroke-width:0.85050136"
     inkscape:connector-curvature="0"
     id="path934"
     d="m 106.79094,90.843728 -2.3814,-9.355515 c 1.5309,-2.806654 2.3814,-6.038559 2.3814,-9.440565 0,-11.056517 -8.930255,-19.986782 -19.986775,-19.986782 -11.056518,0 -19.986782,8.930265 -19.986782,19.986782 0,11.056518 8.930264,19.986782 19.986782,19.986782 3.402,0 6.63391,-0.850501 9.44056,-2.381404 l 9.355515,2.381404 c 0.6804,0.1701 1.3608,-0.510301 1.1907,-1.190702 z"
     sodipodi:nodetypes="ccssssccc" />
  <g
     transform="matrix(0.83256244,0,0,0.83256244,203.91049,52.060867)"
     id="g938"
     style="fill:#262626;fill-opacity:1">
    <path
       style="fill:#262626;fill-opacity:1"
       inkscape:connector-curvature="0"
       d="m 43.5,48 c -0.4,0 -0.8,-0.2 -1.1,-0.4 L 24,29 5.6,47.6 C 5.2,48 4.5,48.2 4,47.9 3.4,47.7 3,47.1 3,46.5 V 1.5 C 3,0.7 3.7,0 4.5,0 h 39 C 44.3,0 45,0.7 45,1.5 v 45 c 0,0.6 -0.4,1.2 -0.9,1.4 C 43.9,48 43.7,48 43.5,48 Z"
       id="path936"
       sodipodi:nodetypes="sccccsssssscs" />
  </g>
  <g
     transform="matrix(0.95923261,0,0,0.95923261,210.0464,67.718574)"
     id="g942"
     style="fill:#262626">
    <path
       inkscape:connector-curvature="0"
       d="m -189.31639,-16.32316 c -4.5,0 -7.9,1.8 -10.6,5.6 -2.7,-3.7 -6.1,-5.5 -10.6,-5.5 -7.4,-0.1 -13.4,6.3999996 -13.4,14.3999996 0,7.3 5.4,12.0000004 10.6,16.5000004 0.6,0.5 1.3,1.1 1.9,1.7 l 2.3,2 c 4.4,3.9 6.6,5.9 7.6,6.5 0.5,0.3 1.1,0.5 1.6,0.5 0.6,0 1.1,-0.2 1.6,-0.5 1,-0.6 2.8,-2.2 7.8,-6.8 l 2,-1.8 c 0.7,-0.6 1.3,-1.2 2,-1.7 5.3,-4.4 10.6,-9.0000004 10.6,-16.4000004 0,-8 -6,-14.4999996 -13.4,-14.4999996 z"
       id="path940"
       sodipodi:nodetypes="sccscccssscccss" />
  </g>
  <g
     transform="matrix(1.1385677,0,0,1.1385677,261.83513,-35.906093)"
     id="g946"
     style="fill:#262626;fill-opacity:1">
    <path
       style="fill:#262626;fill-opacity:1"
       inkscape:connector-curvature="0"
       d="m 14.970847,61.24661 c -0.6,0 -1.1,-0.6 -1,-1.2 0.7,-3.2 3.5,-5.6 6.8,-5.6 h 12 c 3.4,0 6.2,2.4 6.8,5.6 0.1,0.6 -0.4,1.2 -1,1.2 z m 27.800015,3.131859 c 0,-2.006464 0.09998,-3.531859 -1.5e-5,-4.031859 -0.6,-5 -4.8,-8.9 -9.9,-8.9 h -12 c -5.1,0 -9.4,3.9 -9.9,8.9 -0.1,0.5 1.3e-5,3.534692 1.3e-5,4.031852 M 26.870847,29.24661 c -5.3,0 -9.6,4.3 -9.6,9.6 0,5.3 4.3,9.6 9.6,9.6 5.3,0 9.6,-4.3 9.6,-9.6 0,-5.3 -4.3,-9.6 -9.6,-9.6 z m 0,16.1 c -3.6,0 -6.6,-2.9 -6.6,-6.6 0,-3.6 2.9,-6.6 6.6,-6.6 3.7,0 6.6,2.9 6.6,6.6 0,3.6 -3,6.6 -6.6,6.6 z"
       id="path944"
       sodipodi:nodetypes="scsscssccssccssssssssss" />
  </g>
  <g
     style="fill:#262626;fill-opacity:1"
     id="g960"
     transform="matrix(1.1385677,0,0,1.1385677,261.835,18.761621)">
    <path
       sodipodi:nodetypes="ccssccsssss"
       id="path958"
       d="m 42.770862,64.378469 c 0,-2.006464 0.09998,-3.531859 -1.5e-5,-4.031859 -0.6,-5 -4.8,-8.9 -9.9,-8.9 h -12 c -5.1,0 -9.4,3.9 -9.9,8.9 -0.1,0.5 1.3e-5,3.534692 1.3e-5,4.031852 M 26.870847,29.24661 c -5.3,0 -9.6,4.3 -9.6,9.6 0,5.3 4.3,9.6 9.6,9.6 5.3,0 9.6,-4.3 9.6,-9.6 0,-5.3 -4.3,-9.6 -9.6,-9.6 z"
       inkscape:connector-curvature="0"
       style="fill:#262626;fill-opacity:1" />
  </g>
  <g
     style="fill:#262626"
     id="g973"
     transform="matrix(0.91666666,0,0,0.91666666,-225.07782,-151.70836)" />
  <g
     style="fill:#262626"
     id="g986"
     transform="matrix(0.83246617,0,0,0.83246617,-70.213293,-2.5652244)">
    <path
       id="path975"
       d="M 45.3,48 H 30 c -0.8,0 -1.5,-0.7 -1.5,-1.5 V 34.2 c 0,-2.6 -2,-4.6 -4.6,-4.6 -2.6,0 -4.6,2 -4.6,4.6 v 12.3 c 0,0.8 -0.7,1.5 -1.5,1.5 H 2.5 C 1.7,48 1,47.3 1,46.5 V 23 C 1,22.6 1.2,22.2 1.4,21.9 L 22.9,0.4 c 0.6,-0.6 1.5,-0.6 2.1,0 l 21.5,21.5 c 0.4,0.4 0.6,1.1 0.3,1.6 0,0.1 -0.1,0.1 -0.1,0.2 V 46.5 C 46.8,47.3 46.1,48 45.3,48 Z M 31.5,45 H 43.8 V 23.4 L 24,3.6 4,23.6 V 45 H 16.3 V 34.2 c 0,-4.3 3.3,-7.6 7.6,-7.6 4.3,0 7.6,3.3 7.6,7.6 z"
       inkscape:connector-curvature="0" />
  </g>
  <g
     transform="matrix(0.83246617,0,0,0.83246617,-70.213293,52.10249)"
     id="g990"
     style="fill:#262626">
    <path
       inkscape:connector-curvature="0"
       d="M 45.3,48 H 30 c -0.8,0 -1.5,-0.7 -1.5,-1.5 V 34.2 c 0,-2.6 -2,-4.6 -4.6,-4.6 -2.6,0 -4.6,2 -4.6,4.6 v 12.3 c 0,0.8 -0.7,1.5 -1.5,1.5 H 2.5 C 1.7,48 1,47.3 1,46.5 V 23 C 1,22.6 1.2,22.2 1.4,21.9 L 22.9,0.4 c 0.6,-0.6 1.5,-0.6 2.1,0 l 21.5,21.5 c 0.4,0.4 0.6,1.1 0.3,1.6 0,0.1 -0.1,0.1 -0.1,0.2 v 22.8 c 0.1,0.8 -0.6,1.5 -1.4,1.5 z"
       id="path988"
       sodipodi:nodetypes="ssssssssssscssscscs" />
  </g>
  <path
     style="fill:none;fill-opacity:1;fill-rule:evenodd;stroke:#262626;stroke-width:3.01540685;stroke-linecap:round;stroke-linejoin:round;stroke-miterlimit:4;stroke-dasharray:none;stroke-opacity:1;paint-order:normal"
     d="M 357.59158,-0.88830638 A 15.022815,15.022815 0 0 0 342.56795,14.133878 15.022815,15.022815 0 0 0 357.59158,29.157589 15.022815,15.022815 0 0 0 372.61385,14.133878 15.022815,15.022815 0 0 0 357.59158,-0.88830638 Z M 368.7663,25.169962 379.81224,36.11114 Z"
     id="path1027"
     inkscape:connector-curvature="0" />
  <path
     id="path1042"
     d="m 358.04836,55.303611 a 13.942275,13.942275 0 0 0 -13.94302,13.941715 13.942275,13.942275 0 0 0 13.94302,13.943098 13.942275,13.942275 0 0 0 13.94175,-13.943098 13.942275,13.942275 0 0 0 -13.94175,-13.941715 z m 10.37096,24.184003 10.25144,10.1542 z"
     style="fill:none;fill-opacity:1;fill-rule:evenodd;stroke:#262626;stroke-width:5.68982744;stroke-linecap:round;stroke-linejoin:round;stroke-miterlimit:4;stroke-dasharray:none;stroke-opacity:1;paint-order:normal"
     inkscape:connector-curvature="0" />
  <g
     id="g1070"
     transform="matrix(0.36752987,0,0,0.36752987,975.20525,-1014.0216)"
     style="stroke:#262626;stroke-opacity:1">
    <rect
       ry="24.185801"
       y="2755.5254"
       x="-1535.5978"
       height="101.63469"
       width="101.63469"
       id="rect1052"
       style="fill:none;fill-opacity:1;fill-rule:evenodd;stroke:#262626;stroke-width:7.19999981;stroke-linecap:round;stroke-linejoin:round;stroke-miterlimit:4;stroke-dasharray:none;stroke-opacity:1;paint-order:normal" />
    <path
       inkscape:connector-curvature="0"
       id="path1054"
       d="m -1484.7804,2836.6884 v -60.2598"
       style="fill:none;stroke:#262626;stroke-width:7;stroke-linecap:round;stroke-linejoin:round;stroke-miterlimit:4;stroke-dasharray:none;stroke-opacity:1" />
    <path
       style="fill:none;stroke:#262626;stroke-width:7;stroke-linecap:round;stroke-linejoin:round;stroke-miterlimit:4;stroke-dasharray:none;stroke-opacity:1"
       d="m -1514.9103,2806.5585 h 60.2598"
       id="path1065"
       inkscape:connector-curvature="0" />
  </g>
  <path
     style="color:#000000;font-style:normal;font-variant:normal;font-weight:normal;font-stretch:normal;font-size:medium;line-height:normal;font-family:sans-serif;font-variant-ligatures:normal;font-variant-position:normal;font-variant-caps:normal;font-variant-numeric:normal;font-variant-alternates:normal;font-feature-settings:normal;text-indent:0;text-align:start;text-decoration:none;text-decoration-line:none;text-decoration-style:solid;text-decoration-color:#000000;letter-spacing:normal;word-spacing:normal;text-transform:none;writing-mode:lr-tb;direction:ltr;text-orientation:mixed;dominant-baseline:auto;baseline-shift:baseline;text-anchor:start;white-space:normal;shape-padding:0;clip-rule:nonzero;display:inline;overflow:visible;visibility:visible;opacity:1;isolation:auto;mix-blend-mode:normal;color-interpolation:sRGB;color-interpolation-filters:linearRGB;solid-color:#000000;solid-opacity:1;vector-effect:none;fill:#262626;fill-opacity:1;fill-rule:evenodd;stroke:none;stroke-width:2.64621496;stroke-linecap:round;stroke-linejoin:round;stroke-miterlimit:4;stroke-dasharray:none;stroke-dashoffset:0;stroke-opacity:1;paint-order:normal;color-rendering:auto;image-rendering:auto;shape-rendering:auto;text-rendering:auto;enable-background:accumulate"
     d="m 419.71879,52.060867 c -5.63464,0 -10.21486,4.576312 -10.21486,10.210936 v 19.578126 c 0,5.634624 4.58022,10.210938 10.21486,10.210938 h 19.5742 c 5.63462,0 10.21094,-4.576314 10.21094,-10.210938 V 62.271803 c 0,-5.634624 -4.57632,-10.210936 -10.21094,-10.210936 z m 9.76562,7.699218 a 1.2864832,1.2864832 0 0 1 1.30858,1.304688 v 9.789062 h 9.78516 a 1.28711,1.28711 0 0 1 0,2.57422 h -9.78516 v 9.785156 a 1.28711,1.28711 0 1 1 -2.5742,0 v -9.785156 h -9.78908 a 1.28711,1.28711 0 0 1 0,-2.57422 h 9.78908 v -9.789062 a 1.2864832,1.2864832 0 0 1 1.26562,-1.304688 z"
     id="rect1096"
     inkscape:connector-curvature="0" />
  <g
     id="g1150"
     transform="matrix(0.3956879,0,0,0.3956879,-181.66371,125.55767)"
     style="stroke:#262626;stroke-width:7.06617498;stroke-miterlimit:4;stroke-dasharray:none;stroke-opacity:1">
    <path
       sodipodi:nodetypes="ccsccccccsccc"
       inkscape:connector-curvature="0"
       d="m 479.97264,57.290266 c -13.4958,0.39572 -16.3909,-7.08339 -16.5758,-16.57575 v -51.2726 c 0,-6.66141 3.4077,-14.01344 11.8664,-14.01345 h 16.0539 c 2.922,-2.58921 4.4171,-13.7961 7.8199,-13.814 h 34.5164 c 3.4028,0.0179 4.8979,11.22479 7.8199,13.814 h 16.0539 c 8.4587,10e-6 11.8664,7.35204 11.8664,14.01345 v 51.2726 c -0.1849,9.49236 -3.08,16.97147 -16.5758,16.57575 z"
       style="fill:none;stroke:#262626;stroke-width:7.06617498;stroke-linecap:round;stroke-linejoin:round;stroke-miterlimit:4;stroke-dasharray:none;stroke-opacity:1"
       id="path1143" />
    <circle
       r="23.372499"
       cy="15.402516"
       cx="516.39526"
       id="path1146"
       style="fill:none;fill-opacity:1;fill-rule:evenodd;stroke:#262626;stroke-width:7.06617498;stroke-linecap:round;stroke-linejoin:round;stroke-miterlimit:4;stroke-dasharray:none;stroke-opacity:1;paint-order:normal" />
  </g>
</svg>
